<svg xmlns="http://www.w3.org/2000/svg" version="1.1" xmlns:xlink="http://www.w3.org/1999/xlink" viewBox="0 0 4.730399575443551 3.7531256977912286"><g transform="matrix(0.841491752023493,0,0,0.841491752023493,2.3651200124375236,3.31600402250314)"><g transform="matrix(1,0,0,1,0,0)"><path d=" M -1.2030601150453184 -1.7761957817699223 Q -1.2349837008543196 -1.7150248354874318 -1.285620110955531 -1.6709515559173573 Q -1.3362565210567423 -1.626878276347283 -1.4005746669589214 -1.6063009561207324 Q -1.4648928128611005 -1.5857236358941817 -1.5374571242207475 -1.5925735057396757 Q -1.6100214355803946 -1.5994233755851697 -1.6871500200235348 -1.639674853344345 Q -1.7536401790262417 -1.6743744031367376 -1.7974239494527253 -1.7288076783205897 Q -1.841207719879209 -1.783240953504442 -1.861302986504647 -1.849563500645309 Q -1.8813982531300852 -1.9158860477861763 -1.8747991065537546 -1.9868892256338198 Q -1.8681999599774235 -2.057892403481463 -1.8325750888572339 -2.1261556333909093 Q -1.7881596651229716 -2.2112630369143744 -1.7152809120240522 -2.2612123847253995 Q -1.6424021589251327 -2.311161732536424 -1.5609905010543883 -2.3115385119637657 L -1.529670861995674 -2.131635537532458 Q -1.5766212249790599 -2.1324500408954394 -1.6186596269237201 -2.1070133987833373 Q -1.6606980288683804 -2.081576756671234 -1.682443080071613 -2.0399095903628712 Q -1.6986362033080629 -2.0088808494949415 -1.6996418662139492 -1.976694072052648 Q -1.7006475291198355 -1.9445072946103548 -1.688431347059419 -1.913880265765448 Q -1.6762151649990025 -1.883253236920541 -1.6509502894925907 -1.857096286302292 Q -1.6256854139861792 -1.830939335684043 -1.5893374603980326 -1.8119702484642017 Q -1.5521029713565166 -1.792538500580462 -1.5164088379751732 -1.7874464634483438 Q -1.4807147045938298 -1.7823544263162256 -1.4490473817124596 -1.7900797522981535 Q -1.4173800588310894 -1.7978050782800814 -1.3915320102936453 -1.8181552229185336 Q -1.3656839617562009 -1.8385053675569858 -1.348565517191954 -1.8713071793316547 Q -1.3268204659887213 -1.9129743456400177 -1.3277596405952645 -1.9619678957365196 Q -1.3286988152018078 -2.010961445833021 -1.3506267164602432 -2.0618845952485896 L -1.182184980320052 -1.973979069107862 Q -1.154480745335969 -1.8692820043737124 -1.2030601150453184 -1.7761957817699223 M -1.3375226140318404 -2.043766027436924 L -1.3981311610025526 -1.9276298830455287 L -1.5222461244742727 -1.992402375991328 L -1.3871492106158911 -2.251270728375201 L -1.0520388092422472 -2.076384997421543 L -1.1265271761299165 -1.9336527894290652 L -1.3375226140318404 -2.043766027436924 M -0.8025697274009966 -3.0851327207313117 L -0.43533852889520974 -2.477480479030515 L -0.6022289333059918 -2.376621206201461 L -0.7460180504674127 -2.614547013515294 L -0.9497099286713416 -2.491446977959833 L -0.8059208115099209 -2.253521170646 L -0.9728112159207031 -2.152661897816946 L -1.34004241442649 -2.7603141395177424 L -1.1731520100157078 -2.8611734123467967 L -1.037638525496671 -2.6369411766769253 L -0.8339466472927419 -2.7600412122323865 L -0.9694601318117787 -2.9842734479022575 L -0.8025697274009966 -3.0851327207313117 M -0.1578958676266157 -3.2181184718881797 L 0.06004204307654187 -3.2233210749234438 L 0.30292193286530833 -2.5189168166056812 L 0.1049783258963855 -2.5141915166011755 L 0.05867331680401172 -2.6521257260379762 L -0.1302728534845056 -2.6476152123973113 L -0.168943635262629 -2.5076524650797887 L -0.36788695741826366 -2.502903299923745 L -0.1578958676266157 -3.2181184718881797 M 0.024579676316019927 -2.781348880612826 L -0.04436866833129638 -3.029774172743871 L -0.10438358276979348 -2.7782702760644358 L 0.024579676316019927 -2.781348880612826 M 0.3632957419539524 -2.480324096888684 L 0.6574540061430645 -3.126521369870588 L 1.100690727188398 -2.924753659081718 L 1.0302584667487515 -2.770030368367741 L 0.7644984615223913 -2.8910081333581927 L 0.7156101866289897 -2.7836119668626087 L 0.9322227936285572 -2.6850068022471034 L 0.8667622221611211 -2.541205155583525 L 0.6501496151615535 -2.63981032019903 L 0.5407724577729259 -2.399534151090266 L 0.3632957419539524 -2.480324096888684 M 0.8561959007944969 -2.2127976409877466 L 1.339993883446499 -2.732450902289793 L 1.4827155538041035 -2.599576808462835 L 0.9989175711521013 -2.079923547160788 L 0.8561959007944969 -2.2127976409877466 M 1.0991482961468457 -1.999354794665035 L 1.736138887855967 -2.3129516474459 L 1.8801284287102797 -2.0204742771681907 Q 1.903096085533667 -1.9738214450993536 1.9036896898948874 -1.9250705719393544 Q 1.9042832942561079 -1.876319698779355 1.8865677073311977 -1.8319304210210272 Q 1.8688521204062876 -1.7875411432627 1.8371061470097578 -1.7524064997735904 Q 1.805360173613228 -1.7172718562844809 1.7649875304767344 -1.697395999418088 Q 1.7282035667301514 -1.6792868853842635 1.6888108840282965 -1.6732688666445967 Q 1.6494182013264416 -1.66725084790493 1.6109985798436286 -1.6739726545904405 Q 1.5725789583608156 -1.6806944612759511 1.5378101092082839 -1.699245125107968 L 1.3699016352379303 -1.4493896781612443 L 1.2753808936955289 -1.6413840255214582 L 1.4157532069278955 -1.8498177408311325 L 1.3808600359846726 -1.9206941587818658 L 1.185277009234548 -1.824406674406896 L 1.0991482961468457 -1.999354794665035 M 1.5333789100558706 -1.9957807291660166 L 1.5877062521573444 -1.8854288379262674 Q 1.5930064806550492 -1.8746627997565357 1.6059395520719106 -1.8687691028075604 Q 1.618872623488772 -1.8628754058585848 1.6374371537069572 -1.8636552890409177 Q 1.6560016839251426 -1.8644351722232504 1.6775337602646059 -1.87503562921866 Q 1.6999630064515467 -1.8860777719222117 1.7110119804157202 -1.9009915298101157 Q 1.7220609543798937 -1.9159052876980196 1.7246144116554167 -1.9310950821647686 Q 1.7271678689309395 -1.9462848766315175 1.7218676404332347 -1.9570509148012492 L 1.6697487268724713 -2.06291695680361 L 1.5333789100558706 -1.9957807291660166" fill="#c90678" fill-rule="nonzero"></path></g><g transform="matrix(1,0,0,1,0,0)"><g transform="matrix(1,0,0,1,0,0)" clip-path="url(#SvgjsClipPath52843)"><g clip-path="url(#SvgjsClipPath528415ebe0d0a-f26b-4636-a931-39405c9fbd84)"><path d=" M 0.657940408413853 -1.807988918250662 L -0.6579404084138527 -1.807988918250662 L -0.6579404084138527 -0.49210810142295647 L 0.657940408413853 -0.49210810142295647 Z M -0.6806276767907062 -1.8306761866275159 L -0.6806276767907062 -0.46942083304610294 L 0.6806276767907066 -0.46942083304610294 L 0.6806276767907066 -1.8306761866275159 Z" fill="#c90678" transform="matrix(1,0,0,1,0,0)" fill-rule="evenodd"></path></g><g clip-path="url(#SvgjsClipPath528415ebe0d0a-f26b-4636-a931-39405c9fbd84)"><path d=" M 0 -2.080515277840758 L -0.9304667680039485 -1.1500485098368096 L 0 -0.21958174183286072 L 0.9304667680039488 -1.1500485098368096 Z M -0.9625485098368094 -1.1500485098368096 L 0 -0.1875 L 0.9625485098368095 -1.1500485098368096 L 0 -2.112597019673619 Z" fill="#c90678" transform="matrix(1,0,0,1,0,0)" fill-rule="evenodd"></path></g><g clip-path="url(#SvgjsClipPath528415ebe0d0a-f26b-4636-a931-39405c9fbd84)"><path d=" M 0.24082001167607148 -2.0488089299267336 L -0.8987604200899241 -1.3908685215128809 L -0.24082001167607134 -0.25128808974688543 L 0.8987604200899241 -0.9092284981607383 Z M -0.9297544821066693 -1.3991753151527726 L -0.24912680531596304 -0.22029402773013995 L 0.9297544821066696 -0.9009217045208464 L 0.2491268053159631 -2.079802991943479 Z" fill="#c90678" transform="matrix(1,0,0,1,0,0)" fill-rule="evenodd"></path></g><g clip-path="url(#SvgjsClipPath528415ebe0d0a-f26b-4636-a931-39405c9fbd84)"><path d=" M 0.8987604200899241 -1.3908685215128809 L -0.24082001167607134 -2.0488089299267336 L -0.8987604200899241 -0.909228498160738 L 0.24082001167607126 -0.25128808974688543 Z M -0.24912680531596304 -2.079802991943479 L -0.9297544821066693 -0.9009217045208464 L 0.2491268053159631 -0.22029402773013995 L 0.9297544821066696 -1.3991753151527726 Z" fill="#c90678" transform="matrix(1,0,0,1,0,0)" fill-rule="evenodd"></path></g><g clip-path="url(#SvgjsClipPath528415ebe0d0a-f26b-4636-a931-39405c9fbd84)"><path d=" M 0.4652285712594253 -1.955855620331793 L -0.8058071104949833 -1.6152770810962345 L -0.465228571259425 -0.34424139934182607 L 0.8058071104949834 -0.6848199385773842 Z M -0.8335670095186769 -1.6313227647552142 L -0.4812742549184047 -0.3164815003181325 L 0.833567009518677 -0.6687742549184048 L 0.4812742549184047 -1.9836155193554865 Z" fill="#c90678" transform="matrix(1,0,0,1,0,0)" fill-rule="evenodd"></path></g><g clip-path="url(#SvgjsClipPath528415ebe0d0a-f26b-4636-a931-39405c9fbd84)"><path d=" M 0.8058071104949834 -1.6152770810962345 L -0.465228571259425 -1.955855620331793 L -0.8058071104949833 -0.6848199385773842 L 0.4652285712594253 -0.34424139934182607 Z M -0.4812742549184047 -1.9836155193554865 L -0.8335670095186769 -0.6687742549184048 L 0.4812742549184047 -0.3164815003181325 L 0.833567009518677 -1.6313227647552142 Z" fill="#c90678" transform="matrix(1,0,0,1,0,0)" fill-rule="evenodd"></path></g><path d=" M -0.010117326715725905 -1.5442978309891466 C 0.013616746129565316 -1.5442978309891466 0.03295562029980259 -1.5636367051593838 0.03295562029980259 -1.587370778004675 C 0.03295562029980259 -1.6111048508499664 0.013616746129565316 -1.6313227647552142 -0.010117326715725905 -1.6313227647552142 C -0.034730439296027815 -1.6313227647552142 -0.054069313466265145 -1.6111048508499664 -0.054069313466265145 -1.587370778004675 C -0.054069313466265145 -1.5636367051593838 -0.034730439296027815 -1.5442978309891466 -0.010117326715725905 -1.5442978309891466 M 0.07866568652036332 -0.6687742549184049 C 0.15074694479124773 -0.6687742549184049 0.2421670772323694 -0.6907502482936745 0.28436098451288705 -0.7127262416689443 L 0.2615059514026066 -0.7742590231196991 C 0.20876356730195955 -0.7522830297444294 0.14019846797111835 -0.7408555131892893 0.07866568652036332 -0.7408555131892893 C -0.01187540618574745 -0.7408555131892893 -0.14197328696734363 -0.7760171025897207 -0.14197328696734363 -0.9140263409864139 C -0.14197328696734363 -1.0502774999130855 -0.01627060486080134 -1.1416976323542072 0.15514214346630173 -1.1733430628145953 L 0.13668230903107526 -1.2419081621454366 C 0.08218184546040652 -1.2322387250603182 0.03119754082978099 -1.215536970095113 -0.013633485655768995 -1.1935609767198434 C -0.058464512141319036 -1.2023513740699512 -0.119997293592074 -1.240150082675415 -0.119997293592074 -1.2928924667760622 C -0.119997293592074 -1.3447558111416984 -0.07516626710652397 -1.3816754800121513 -0.010996366450736705 -1.3816754800121513 C 0.010100587189522225 -1.3816754800121513 0.03735081897485648 -1.3781593210721081 0.06108489182014776 -1.3720060429270329 L 0.07602856731533103 -1.4396921025228633 C 0.047899295794985974 -1.448482499872971 0.01625386533459766 -1.4537567382830359 -0.010996366450736705 -1.4537567382830359 C -0.10241649889185828 -1.4537567382830359 -0.19032047239293676 -1.3974981952423455 -0.19032047239293676 -1.2876182283659974 C -0.19032047239293676 -1.2252064071802318 -0.14988464458244066 -1.1680688244045307 -0.0918680220717289 -1.1434557118242288 C -0.16834447901766714 -1.0819229303734739 -0.21405454523822798 -0.9984141555474492 -0.21405454523822798 -0.9034778641662845 C -0.21405454523822798 -0.7206375992840413 -0.047036995586178854 -0.6687742549184049 0.07866568652036332 -0.6687742549184049" fill="#c90678" transform="matrix(1,0,0,1,0,0)" fill-rule="nonzero"></path></g></g></g><defs><clipPath id="SvgjsClipPath52843"><path d=" M -0.9625485098368094 -2.112597019673619 h 1.9250970196736188 v 1.9250970196736188 h -1.9250970196736188 Z"></path></clipPath><clipPath id="SvgjsClipPath528415ebe0d0a-f26b-4636-a931-39405c9fbd84"><path d=" M -0.9625485098368094 -2.112597019673619 L 0.9625485098368095 -2.112597019673619 L 0.9625485098368095 -0.1875 L -0.9625485098368094 -0.1875 Z"></path></clipPath></defs></svg>